<svg width="128" height="128" viewBox="0 0 128 128" fill="none" xmlns="http://www.w3.org/2000/svg">
<g id="Designer Logo Animation">
<g id="Logo">
<g id="Group 1">
<g id="Group 4">
<path id="Vector" d="M35.2941 85.7263H22.9159C19.0963 85.7263 16 88.8302 16 92.6591V105.067C16 108.896 19.0963 112 22.9159 112H35.2941C39.1137 112 42.21 108.896 42.21 105.067V92.6591C42.21 88.8302 39.1137 85.7263 35.2941 85.7263Z" fill="#3D3D3D"/>
<path id="Vector_2" d="M104.154 16.8551H91.7754C87.9558 16.8551 84.8595 19.959 84.8595 23.7879V36.1961C84.8595 40.025 87.9558 43.1287 91.7754 43.1287H104.154C107.973 43.1287 111.07 40.025 111.07 36.1961V23.7879C111.07 19.959 107.973 16.8551 104.154 16.8551Z" fill="#3D3D3D"/>
</g>
<g id="Group 2">
<path id="Vector_3" d="M35.3141 16H22.9359C19.1164 16 16.02 19.1039 16.02 22.9328V35.3411C16.02 39.17 19.1164 42.2737 22.9359 42.2737H35.3141C39.1337 42.2737 42.23 39.17 42.23 35.3411V22.9328C42.23 19.1039 39.1337 16 35.3141 16Z" fill="#3D3D3D"/>
<path id="Vector_4" d="M103.864 84.7158H91.4853C87.6657 84.7158 84.5694 87.8197 84.5694 91.6486V104.057C84.5694 107.886 87.6657 110.989 91.4853 110.989H103.864C107.683 110.989 110.779 107.886 110.779 104.057V91.6486C110.779 87.8197 107.683 84.7158 103.864 84.7158Z" fill="#3D3D3D"/>
<path id="Vector_5" d="M76.5048 63.4948C76.5048 70.75 70.6375 76.6316 63.3998 76.6316C56.1621 76.6316 50.2948 70.75 50.2948 63.4948C50.2948 56.2395 56.1621 50.3579 63.3998 50.3579C70.6375 50.3579 76.5048 56.2395 76.5048 63.4948Z" fill="#3D3D3D"/>
</g>
<g id="Group 3">
<path id="Vector_6" d="M71.3902 84.9866H60.5657C56.0638 84.7483 51.7795 82.9698 48.4278 79.9473L47.975 79.5387C44.9502 76.1492 43.176 71.8227 42.9477 67.2806V56.3845C42.9253 54.5486 42.1971 52.7921 40.9146 51.481C39.6322 50.1701 37.8944 49.4058 36.0636 49.3474H23.1106C21.2247 49.3474 19.4162 50.0984 18.0827 51.4351C16.7492 52.7719 16 54.5847 16 56.4752V69.2327C16 71.1232 16.7492 72.9361 18.0827 74.273C19.4162 75.6097 21.2247 76.3606 23.1106 76.3606H33.9803C38.4781 76.6168 42.7568 78.3931 46.1181 81.4001L46.5258 81.854C49.541 85.2138 51.3154 89.5085 51.5529 94.0213V104.872C51.5529 105.812 51.7384 106.742 52.0984 107.61C52.4587 108.478 52.9866 109.266 53.6517 109.928C54.3166 110.591 55.1059 111.115 55.9739 111.47C56.8419 111.826 57.7713 112.006 58.7088 112H71.3902C73.2759 112 75.0846 111.249 76.4181 109.912C77.7516 108.576 78.5008 106.762 78.5008 104.872V92.1145C78.5008 90.2242 77.7516 88.4111 76.4181 87.0744C75.0846 85.7376 73.2759 84.9866 71.3902 84.9866Z" fill="#CF2E2E"/>
<path id="Vector_7" d="M104.889 52.4943H94.0648C89.563 52.256 85.2786 50.4775 81.927 47.455L81.4742 47.0464C78.4493 43.6569 76.6751 39.3304 76.4469 34.7883V23.8922C76.4245 22.0562 75.6963 20.2998 74.4138 18.9887C73.1313 17.6778 71.3936 16.9135 69.5627 16.8551H56.6097C54.7238 16.8551 52.9153 17.6061 51.5818 18.9428C50.2483 20.2795 49.4991 22.0924 49.4991 23.9829V36.7404C49.4991 38.6309 50.2483 40.4438 51.5818 41.7807C52.9153 43.1174 54.7238 43.8683 56.6097 43.8683H67.4794C71.9773 44.1245 76.2559 45.9008 79.6173 48.9077L80.0249 49.3617C83.0401 52.7215 84.8145 57.0162 85.052 61.529V72.3796C85.052 73.3196 85.2375 74.2501 85.5976 75.1178C85.9579 75.9856 86.4857 76.7734 87.1508 77.4359C87.8158 78.0984 88.6051 78.6225 89.473 78.978C90.341 79.3335 91.2705 79.5136 92.208 79.5075H104.889C106.775 79.5075 108.584 78.7567 109.917 77.42C111.251 76.0832 112 74.2701 112 72.3796V59.6221C112 57.7319 111.251 55.9188 109.917 54.5821C108.584 53.2453 106.775 52.4943 104.889 52.4943Z" fill="#CF2E2E"/>
</g>
</g>
</g>
</g>
</svg>
